<?xml version="1.0" standalone="no"?>
<!DOCTYPE svg PUBLIC "-//W3C//DTD SVG 20010904//EN"
 "http://www.w3.org/TR/2001/REC-SVG-20010904/DTD/svg10.dtd">
<svg version="1.0" xmlns="http://www.w3.org/2000/svg"
 width="48.000000pt" height="48.000000pt" viewBox="0 0 48.000000 48.000000"
 preserveAspectRatio="xMidYMid meet">

<g transform="translate(0.000000,48.000000) scale(0.100000,-0.100000)"
fill="#000000" stroke="none">
<path d="M100 419 c0 -6 25 -46 55 -89 30 -43 55 -83 55 -90 0 -7 -25 -47 -55
-90 -30 -43 -55 -83 -55 -89 0 -29 30 -3 79 70 l54 81 19 -23 c10 -13 35 -50
56 -81 34 -53 62 -74 62 -47 0 6 -25 46 -55 89 -30 43 -55 83 -55 90 0 7 25
47 55 90 30 43 55 83 55 89 0 27 -28 6 -62 -47 -21 -31 -46 -68 -56 -81 l-19
-23 -54 81 c-49 73 -79 99 -79 70z"/>
</g>
</svg>
